<svg viewBox="0 0 800 470" xmlns="http://www.w3.org/2000/svg" font-family="monospace, sans-serif">
  <!-- Background -->
  <rect width="800" height="470" fill="#1a1a2e"/>

  <!-- Title -->
  <text x="400" y="32" text-anchor="middle" fill="white" font-size="18" font-weight="bold">F3iducial — Field Inspection Tour</text>
  <text x="400" y="50" text-anchor="middle" fill="#9aa0c0" font-size="11">Start in front of Tag 1, calibrate, then odometry-drive to Tags 1 → 10</text>

  <!-- Field boundary walls -->
  <rect x="60" y="65" width="680" height="340" fill="none" stroke="#5c5c8a" stroke-width="6" rx="4"/>

  <!-- Field interior surface -->
  <rect x="66" y="71" width="668" height="328" fill="#16213e" opacity="0.7"/>

  <!-- Center lines (dashed) -->
  <line x1="400" y1="71" x2="400" y2="399" stroke="#2a2a5a" stroke-width="1.5" stroke-dasharray="8,6"/>
  <line x1="66" y1="235" x2="734" y2="235" stroke="#2a2a5a" stroke-width="1.5" stroke-dasharray="8,6"/>

  <!-- ===== AprilTag markers ===== -->
  <!-- Top wall: 1, 2, 3 -->
  <g stroke="#0288d1" stroke-width="1.5">
    <rect x="160" y="69" width="28" height="22" rx="2" fill="#4fc3f7"/>
    <text x="174" y="83" text-anchor="middle" fill="white" font-size="9" font-weight="bold" stroke="none">1</text>
    <rect x="386" y="69" width="28" height="22" rx="2" fill="#4fc3f7"/>
    <text x="400" y="83" text-anchor="middle" fill="white" font-size="9" font-weight="bold" stroke="none">2</text>
    <rect x="612" y="69" width="28" height="22" rx="2" fill="#4fc3f7"/>
    <text x="626" y="83" text-anchor="middle" fill="white" font-size="9" font-weight="bold" stroke="none">3</text>
  </g>

  <!-- Bottom wall: 6, 5, 4 -->
  <g stroke="#0288d1" stroke-width="1.5">
    <rect x="160" y="379" width="28" height="22" rx="2" fill="#4fc3f7"/>
    <text x="174" y="393" text-anchor="middle" fill="white" font-size="9" font-weight="bold" stroke="none">6</text>
    <rect x="386" y="379" width="28" height="22" rx="2" fill="#4fc3f7"/>
    <text x="400" y="393" text-anchor="middle" fill="white" font-size="9" font-weight="bold" stroke="none">5</text>
    <rect x="612" y="379" width="28" height="22" rx="2" fill="#4fc3f7"/>
    <text x="626" y="393" text-anchor="middle" fill="white" font-size="9" font-weight="bold" stroke="none">4</text>
  </g>

  <!-- Left wall: 7, 8 -->
  <g stroke="#0288d1" stroke-width="1.5">
    <rect x="65" y="150" width="22" height="28" rx="2" fill="#4fc3f7"/>
    <text x="76" y="167" text-anchor="middle" fill="white" font-size="9" font-weight="bold" stroke="none">7</text>
    <rect x="65" y="216" width="22" height="28" rx="2" fill="#4fc3f7"/>
    <text x="76" y="233" text-anchor="middle" fill="white" font-size="9" font-weight="bold" stroke="none">8</text>
  </g>

  <!-- Right wall: 9, 10 -->
  <g stroke="#0288d1" stroke-width="1.5">
    <rect x="713" y="150" width="22" height="28" rx="2" fill="#4fc3f7"/>
    <text x="724" y="167" text-anchor="middle" fill="white" font-size="9" font-weight="bold" stroke="none">9</text>
    <rect x="713" y="216" width="22" height="28" rx="2" fill="#4fc3f7"/>
    <text x="724" y="233" text-anchor="middle" fill="white" font-size="9" font-weight="bold" stroke="none">10</text>
  </g>

  <!-- ===== Calibration ("wiggle") arc near HOME, in front of Tag 1 ===== -->
  <!-- Small arrowed arc indicating the bot moves slightly to calibrate camera + odometry -->
  <g fill="none" stroke="#80deea" stroke-width="1.8" stroke-linecap="round">
    <path d="M 158 205 A 18 12 0 1 1 190 205" stroke-dasharray="3,3"/>
  </g>
  <polygon points="190,205 184,200 184,210" fill="#80deea"/>
  <text x="218" y="208" fill="#80deea" font-size="10">calibrate</text>

  <!-- ===== Tour path =====
       Visit order: HOME -> 1 -> 2 -> 3 -> 4 -> 5 -> 6 -> 7 -> 8 -> 9 -> 10
       HOME placed 3–4 ft in front of Tag 1 (below it on the diagram).
       Robot waypoint coordinates (centre of robot when probing):
         HOME: (174,210)
         T1:  (174,130)
         T2:  (400,130)
         T3:  (626,130)
         T4:  (626,320)
         T5:  (400,320)
         T6:  (174,320)
         T7:  (112,164)
         T8:  (112,235)
         T9:  (688,164)
         T10: (688,235)
  -->
  <path d="M 174 210
           L 174 130
           L 400 130
           L 626 130
           L 626 320
           L 400 320
           L 174 320
           L 112 164
           L 112 235
           L 688 164
           L 688 235"
        fill="none" stroke="#ff8f00" stroke-width="2.5" stroke-dasharray="10,5" opacity="0.85"/>

  <!-- ===== Probe-contact strokes (short solid line from waypoint to tag) ===== -->
  <g stroke="#ffd54f" stroke-width="2" stroke-linecap="round">
    <line x1="174" y1="130" x2="174" y2="91"/>  <!-- tag 1 -->
    <line x1="400" y1="130" x2="400" y2="91"/>  <!-- tag 2 -->
    <line x1="626" y1="130" x2="626" y2="91"/>  <!-- tag 3 -->
    <line x1="626" y1="320" x2="626" y2="379"/> <!-- tag 4 -->
    <line x1="400" y1="320" x2="400" y2="379"/> <!-- tag 5 -->
    <line x1="174" y1="320" x2="174" y2="379"/> <!-- tag 6 -->
    <line x1="112" y1="164" x2="87"  y2="164"/> <!-- tag 7 -->
    <line x1="112" y1="235" x2="87"  y2="230"/> <!-- tag 8 -->
    <line x1="688" y1="164" x2="713" y2="164"/> <!-- tag 9 -->
    <line x1="688" y1="235" x2="713" y2="230"/> <!-- tag 10 -->
  </g>

  <!-- ===== Sequence-number badges at each waypoint ===== -->
  <g font-size="10" font-weight="bold" font-family="sans-serif">
    <!-- 1: tag 1 -->
    <circle cx="200" cy="148" r="10" fill="#0d0d24" stroke="#ffd54f" stroke-width="1.5"/>
    <text x="200" y="152" text-anchor="middle" fill="#ffd54f">1</text>
    <!-- 2: tag 2 -->
    <circle cx="400" cy="152" r="10" fill="#0d0d24" stroke="#ffd54f" stroke-width="1.5"/>
    <text x="400" y="156" text-anchor="middle" fill="#ffd54f">2</text>
    <!-- 3: tag 3 -->
    <circle cx="600" cy="148" r="10" fill="#0d0d24" stroke="#ffd54f" stroke-width="1.5"/>
    <text x="600" y="152" text-anchor="middle" fill="#ffd54f">3</text>
    <!-- 4: tag 4 -->
    <circle cx="652" cy="338" r="10" fill="#0d0d24" stroke="#ffd54f" stroke-width="1.5"/>
    <text x="652" y="342" text-anchor="middle" fill="#ffd54f">4</text>
    <!-- 5: tag 5 -->
    <circle cx="400" cy="338" r="10" fill="#0d0d24" stroke="#ffd54f" stroke-width="1.5"/>
    <text x="400" y="342" text-anchor="middle" fill="#ffd54f">5</text>
    <!-- 6: tag 6 -->
    <circle cx="148" cy="338" r="10" fill="#0d0d24" stroke="#ffd54f" stroke-width="1.5"/>
    <text x="148" y="342" text-anchor="middle" fill="#ffd54f">6</text>
    <!-- 7: tag 7 -->
    <circle cx="134" cy="142" r="10" fill="#0d0d24" stroke="#ffd54f" stroke-width="1.5"/>
    <text x="134" y="146" text-anchor="middle" fill="#ffd54f">7</text>
    <!-- 8: tag 8 -->
    <circle cx="134" cy="258" r="10" fill="#0d0d24" stroke="#ffd54f" stroke-width="1.5"/>
    <text x="134" y="262" text-anchor="middle" fill="#ffd54f">8</text>
    <!-- 9: tag 9 -->
    <circle cx="666" cy="142" r="10" fill="#0d0d24" stroke="#ffd54f" stroke-width="1.5"/>
    <text x="666" y="146" text-anchor="middle" fill="#ffd54f">9</text>
    <!-- 10: tag 10 -->
    <circle cx="666" cy="258" r="11" fill="#0d0d24" stroke="#ffd54f" stroke-width="1.5"/>
    <text x="666" y="262" text-anchor="middle" fill="#ffd54f">10</text>
  </g>

  <!-- ===== Home / start marker (3–4 ft in front of Tag 1) ===== -->
  <g>
    <rect x="156" y="192" width="36" height="36" fill="none" stroke="#9aa0c0" stroke-width="1.5" stroke-dasharray="3,3" rx="3"/>
    <text x="174" y="248" text-anchor="middle" fill="#9aa0c0" font-size="10">HOME</text>
    <text x="174" y="260" text-anchor="middle" fill="#9aa0c0" font-size="9">(3–4 ft from Tag 1)</text>
  </g>

  <!-- ===== Robot (shown at HOME, facing Tag 1, performing calibration) ===== -->
  <g>
    <!-- Robot body -->
    <rect x="156" y="192" width="36" height="36" fill="#e65100" stroke="#ff8f00" stroke-width="2" rx="3"/>
    <!-- Direction indicator (facing up toward Tag 1) -->
    <polygon points="174,188 168,200 180,200" fill="#ff8f00"/>
    <!-- Camera sight line to Tag 1 -->
    <line x1="174" y1="188" x2="174" y2="91" stroke="#80deea" stroke-width="1" stroke-dasharray="2,3" opacity="0.7"/>
  </g>

  <!-- ===== Legend ===== -->
  <rect x="66" y="412" width="668" height="44" fill="#0d0d24" rx="3"/>

  <rect x="80" y="425" width="14" height="14" fill="#4fc3f7" rx="1"/>
  <text x="100" y="436" fill="#4fc3f7" font-size="11">AprilTag</text>

  <rect x="180" y="425" width="14" height="14" fill="#e65100" rx="1"/>
  <text x="200" y="436" fill="#ff8f00" font-size="11">Robot</text>

  <line x1="265" y1="432" x2="295" y2="432" stroke="#ff8f00" stroke-width="2.5" stroke-dasharray="6,4"/>
  <text x="302" y="436" fill="#ff8f00" font-size="11">Tour Path</text>

  <line x1="385" y1="432" x2="410" y2="432" stroke="#ffd54f" stroke-width="2.5" stroke-linecap="round"/>
  <text x="418" y="436" fill="#ffd54f" font-size="11">Probe Contact</text>

  <circle cx="525" cy="432" r="8" fill="#0d0d24" stroke="#ffd54f" stroke-width="1.5"/>
  <text x="525" y="436" text-anchor="middle" fill="#ffd54f" font-size="10" font-weight="bold">n</text>
  <text x="540" y="436" fill="#ffd54f" font-size="11">Visit Order</text>

  <rect x="635" y="425" width="14" height="14" fill="none" stroke="#9aa0c0" stroke-width="1.5" stroke-dasharray="3,3" rx="1"/>
  <text x="655" y="436" fill="#9aa0c0" font-size="11">Home</text>
</svg>
